# xmcd CD database file
#
# Track frame offsets:
#	180
#	9298
#	32507
#	50648
#	75208
#	102646
#	116770
#	127075
#	154911
#	159159
#	169751
#	211169
#	215952
#	225241
#	235896
#	251266
#	268934
#	291071
#
# Disc length: 4177 seconds
#
# Revision: 2
# Processed by: cddbd v1.5.2PL0 Copyright (c) Steve Scherf et al.
# Submitted via: CDex 1.51
#
DISCID=ef104f12
DTITLE=James Brown - Sex Machine
DYEAR=1900
DGENRE=Rock
TTITLE0=Give It Up Or Turn It Loose
TTITLE1=It's Too Funky In Here
TTITLE2=Gonna Have A Funky Good Time
TTITLE3=Try Me
TTITLE4=Sex Machine
TTITLE5=Get On the Good Foot
TTITLE6=Get Up Off That Thing
TTITLE7=George On My Mind
TTITLE8=Hot Pants
TTITLE9=I Got The Feelin'
TTITLE10=It's A Man's, Man's Man's World
TTITLE11=Cold Sweat
TTITLE12=I Can't Stand It
TTITLE13=Papa's Got A Brand New Bag
TTITLE14=I Got You (I Feel Good)
TTITLE15=Please, Please, Please
TTITLE16=Body Heat
TTITLE17=Jam (1980)
EXTD=
EXTT0=
EXTT1=
EXTT2=
EXTT3=
EXTT4=
EXTT5=
EXTT6=
EXTT7=
EXTT8=
EXTT9=
EXTT10=
EXTT11=
EXTT12=
EXTT13=
EXTT14=
EXTT15=
EXTT16=
EXTT17=
PLAYORDER=
